<svg xmlns="http://www.w3.org/2000/svg" xml:space="preserve" width="1000" height="1000"><svg xml:space="preserve" width="1000" height="1000" viewBox="0 0 820 820"><path fill="#FFF" d="M0 0h820v820H0z"/><path d="M260 80h20v20h-20zM340 80h20v20h-20zM360 80h20v20h-20zM380 80h20v20h-20zM400 80h20v20h-20zM420 80h20v20h-20zM260 100h20v20h-20zM280 100h20v20h-20zM300 100h20v20h-20zM320 100h20v20h-20zM340 100h20v20h-20zM360 100h20v20h-20zM420 100h20v20h-20zM520 100h20v20h-20zM240 120h20v20h-20zM320 120h20v20h-20zM340 120h20v20h-20zM400 120h20v20h-20zM420 120h20v20h-20zM440 120h20v20h-20zM460 120h20v20h-20zM480 120h20v20h-20zM540 120h20v20h-20zM240 140h20v20h-20zM260 140h20v20h-20zM300 140h20v20h-20zM360 140h20v20h-20zM380 140h20v20h-20zM400 140h20v20h-20zM480 140h20v20h-20zM500 140h20v20h-20zM520 140h20v20h-20zM560 140h20v20h-20zM240 160h20v20h-20zM380 160h20v20h-20zM440 160h20v20h-20zM500 160h20v20h-20zM560 160h20v20h-20zM240 180h20v20h-20zM320 180h20v20h-20zM340 180h20v20h-20zM380 180h20v20h-20zM400 180h20v20h-20zM420 180h20v20h-20zM480 180h20v20h-20zM520 180h20v20h-20zM560 180h20v20h-20zM240 200h20v20h-20zM280 200h20v20h-20zM320 200h20v20h-20zM360 200h20v20h-20zM400 200h20v20h-20zM440 200h20v20h-20zM480 200h20v20h-20zM520 200h20v20h-20zM560 200h20v20h-20zM240 220h20v20h-20zM340 220h20v20h-20zM380 220h20v20h-20zM500 220h20v20h-20zM560 220h20v20h-20zM80 240h20v20H80zM120 240h20v20h-20zM140 240h20v20h-20zM160 240h20v20h-20zM180 240h20v20h-20zM200 240h20v20h-20zM260 240h20v20h-20zM280 240h20v20h-20zM300 240h20v20h-20zM320 240h20v20h-20zM340 240h20v20h-20zM360 240h20v20h-20zM380 240h20v20h-20zM400 240h20v20h-20zM440 240h20v20h-20zM520 240h20v20h-20zM600 240h20v20h-20zM620 240h20v20h-20zM640 240h20v20h-20zM660 240h20v20h-20zM680 240h20v20h-20zM100 260h20v20h-20zM160 260h20v20h-20zM180 260h20v20h-20zM240 260h20v20h-20zM260 260h20v20h-20zM280 260h20v20h-20zM360 260h20v20h-20zM400 260h20v20h-20zM440 260h20v20h-20zM460 260h20v20h-20zM480 260h20v20h-20zM500 260h20v20h-20zM540 260h20v20h-20zM560 260h20v20h-20zM600 260h20v20h-20zM620 260h20v20h-20zM640 260h20v20h-20zM660 260h20v20h-20zM680 260h20v20h-20zM700 260h20v20h-20zM100 280h20v20h-20zM120 280h20v20h-20zM140 280h20v20h-20zM180 280h20v20h-20zM200 280h20v20h-20zM240 280h20v20h-20zM260 280h20v20h-20zM280 280h20v20h-20zM440 280h20v20h-20zM460 280h20v20h-20zM500 280h20v20h-20zM580 280h20v20h-20zM640 280h20v20h-20zM720 280h20v20h-20zM120 300h20v20h-20zM160 300h20v20h-20zM220 300h20v20h-20zM260 300h20v20h-20zM300 300h20v20h-20zM360 300h20v20h-20zM400 300h20v20h-20zM460 300h20v20h-20zM500 300h20v20h-20zM520 300h20v20h-20zM540 300h20v20h-20zM620 300h20v20h-20zM720 300h20v20h-20zM100 320h20v20h-20zM120 320h20v20h-20zM140 320h20v20h-20zM160 320h20v20h-20zM180 320h20v20h-20zM200 320h20v20h-20zM220 320h20v20h-20zM260 320h20v20h-20zM380 320h20v20h-20zM440 320h20v20h-20zM500 320h20v20h-20zM560 320h20v20h-20zM580 320h20v20h-20zM620 320h20v20h-20zM680 320h20v20h-20zM700 320h20v20h-20zM80 340h20v20H80zM100 340h20v20h-20zM120 340h20v20h-20zM160 340h20v20h-20zM220 340h20v20h-20zM280 340h20v20h-20zM300 340h20v20h-20zM320 340h20v20h-20zM360 340h20v20h-20zM380 340h20v20h-20zM400 340h20v20h-20zM480 340h20v20h-20zM500 340h20v20h-20zM520 340h20v20h-20zM540 340h20v20h-20zM600 340h20v20h-20zM620 340h20v20h-20zM640 340h20v20h-20zM660 340h20v20h-20zM680 340h20v20h-20zM720 340h20v20h-20zM80 360h20v20H80zM120 360h20v20h-20zM140 360h20v20h-20zM160 360h20v20h-20zM200 360h20v20h-20zM300 360h20v20h-20zM420 360h20v20h-20zM460 360h20v20h-20zM520 360h20v20h-20zM560 360h20v20h-20zM640 360h20v20h-20zM720 360h20v20h-20zM80 380h20v20H80zM100 380h20v20h-20zM160 380h20v20h-20zM260 380h20v20h-20zM280 380h20v20h-20zM300 380h20v20h-20zM340 380h20v20h-20zM360 380h20v20h-20zM400 380h20v20h-20zM460 380h20v20h-20zM480 380h20v20h-20zM600 380h20v20h-20zM660 380h20v20h-20zM720 380h20v20h-20zM80 400h20v20H80zM100 400h20v20h-20zM120 400h20v20h-20zM140 400h20v20h-20zM160 400h20v20h-20zM200 400h20v20h-20zM220 400h20v20h-20zM280 400h20v20h-20zM300 400h20v20h-20zM320 400h20v20h-20zM400 400h20v20h-20zM440 400h20v20h-20zM460 400h20v20h-20zM500 400h20v20h-20zM520 400h20v20h-20zM580 400h20v20h-20zM600 400h20v20h-20zM640 400h20v20h-20zM140 420h20v20h-20zM160 420h20v20h-20zM180 420h20v20h-20zM220 420h20v20h-20zM280 420h20v20h-20zM300 420h20v20h-20zM340 420h20v20h-20zM420 420h20v20h-20zM440 420h20v20h-20zM480 420h20v20h-20zM580 420h20v20h-20zM600 420h20v20h-20zM620 420h20v20h-20zM660 420h20v20h-20zM680 420h20v20h-20zM700 420h20v20h-20zM720 420h20v20h-20zM100 440h20v20h-20zM200 440h20v20h-20zM220 440h20v20h-20zM240 440h20v20h-20zM260 440h20v20h-20zM280 440h20v20h-20zM300 440h20v20h-20zM320 440h20v20h-20zM340 440h20v20h-20zM360 440h20v20h-20zM380 440h20v20h-20zM420 440h20v20h-20zM480 440h20v20h-20zM520 440h20v20h-20zM560 440h20v20h-20zM580 440h20v20h-20zM640 440h20v20h-20zM660 440h20v20h-20zM700 440h20v20h-20zM720 440h20v20h-20zM100 460h20v20h-20zM120 460h20v20h-20zM140 460h20v20h-20zM180 460h20v20h-20zM260 460h20v20h-20zM280 460h20v20h-20zM360 460h20v20h-20zM400 460h20v20h-20zM420 460h20v20h-20zM440 460h20v20h-20zM460 460h20v20h-20zM480 460h20v20h-20zM540 460h20v20h-20zM580 460h20v20h-20zM660 460h20v20h-20zM680 460h20v20h-20zM720 460h20v20h-20zM200 480h20v20h-20zM220 480h20v20h-20zM240 480h20v20h-20zM300 480h20v20h-20zM320 480h20v20h-20zM360 480h20v20h-20zM380 480h20v20h-20zM400 480h20v20h-20zM480 480h20v20h-20zM500 480h20v20h-20zM520 480h20v20h-20zM560 480h20v20h-20zM620 480h20v20h-20zM680 480h20v20h-20zM700 480h20v20h-20zM80 500h20v20H80zM120 500h20v20h-20zM140 500h20v20h-20zM220 500h20v20h-20zM240 500h20v20h-20zM260 500h20v20h-20zM360 500h20v20h-20zM380 500h20v20h-20zM440 500h20v20h-20zM500 500h20v20h-20zM560 500h20v20h-20zM580 500h20v20h-20zM680 500h20v20h-20zM80 520h20v20H80zM160 520h20v20h-20zM180 520h20v20h-20zM200 520h20v20h-20zM240 520h20v20h-20zM280 520h20v20h-20zM300 520h20v20h-20zM320 520h20v20h-20zM380 520h20v20h-20zM400 520h20v20h-20zM420 520h20v20h-20zM480 520h20v20h-20zM520 520h20v20h-20zM540 520h20v20h-20zM620 520h20v20h-20zM700 520h20v20h-20zM80 540h20v20H80zM180 540h20v20h-20zM220 540h20v20h-20zM320 540h20v20h-20zM360 540h20v20h-20zM380 540h20v20h-20zM420 540h20v20h-20zM440 540h20v20h-20zM540 540h20v20h-20zM600 540h20v20h-20zM660 540h20v20h-20zM720 540h20v20h-20zM80 560h20v20H80zM140 560h20v20h-20zM160 560h20v20h-20zM180 560h20v20h-20zM200 560h20v20h-20zM280 560h20v20h-20zM320 560h20v20h-20zM340 560h20v20h-20zM380 560h20v20h-20zM500 560h20v20h-20zM560 560h20v20h-20zM580 560h20v20h-20zM600 560h20v20h-20zM620 560h20v20h-20zM640 560h20v20h-20zM660 560h20v20h-20zM720 560h20v20h-20zM240 580h20v20h-20zM320 580h20v20h-20zM360 580h20v20h-20zM400 580h20v20h-20zM440 580h20v20h-20zM500 580h20v20h-20zM520 580h20v20h-20zM560 580h20v20h-20zM640 580h20v20h-20zM660 580h20v20h-20zM680 580h20v20h-20zM720 580h20v20h-20zM260 600h20v20h-20zM280 600h20v20h-20zM300 600h20v20h-20zM360 600h20v20h-20zM440 600h20v20h-20zM460 600h20v20h-20zM500 600h20v20h-20zM560 600h20v20h-20zM600 600h20v20h-20zM640 600h20v20h-20zM660 600h20v20h-20zM720 600h20v20h-20zM240 620h20v20h-20zM320 620h20v20h-20zM460 620h20v20h-20zM480 620h20v20h-20zM500 620h20v20h-20zM520 620h20v20h-20zM540 620h20v20h-20zM560 620h20v20h-20zM640 620h20v20h-20zM660 620h20v20h-20zM680 620h20v20h-20zM720 620h20v20h-20zM240 640h20v20h-20zM260 640h20v20h-20zM320 640h20v20h-20zM340 640h20v20h-20zM380 640h20v20h-20zM440 640h20v20h-20zM500 640h20v20h-20zM560 640h20v20h-20zM580 640h20v20h-20zM600 640h20v20h-20zM620 640h20v20h-20zM640 640h20v20h-20zM680 640h20v20h-20zM700 640h20v20h-20zM240 660h20v20h-20zM260 660h20v20h-20zM280 660h20v20h-20zM300 660h20v20h-20zM320 660h20v20h-20zM340 660h20v20h-20zM380 660h20v20h-20zM400 660h20v20h-20zM480 660h20v20h-20zM500 660h20v20h-20zM520 660h20v20h-20zM540 660h20v20h-20zM580 660h20v20h-20zM600 660h20v20h-20zM620 660h20v20h-20zM660 660h20v20h-20zM680 660h20v20h-20zM700 660h20v20h-20zM240 680h20v20h-20zM280 680h20v20h-20zM420 680h20v20h-20zM460 680h20v20h-20zM520 680h20v20h-20zM540 680h20v20h-20zM560 680h20v20h-20zM580 680h20v20h-20zM600 680h20v20h-20zM620 680h20v20h-20zM660 680h20v20h-20zM300 700h20v20h-20zM320 700h20v20h-20zM400 700h20v20h-20zM440 700h20v20h-20zM460 700h20v20h-20zM480 700h20v20h-20zM500 700h20v20h-20zM540 700h20v20h-20zM580 700h20v20h-20zM640 700h20v20h-20zM680 700h20v20h-20zM700 700h20v20h-20zM720 700h20v20h-20zM240 720h20v20h-20zM320 720h20v20h-20zM340 720h20v20h-20zM360 720h20v20h-20zM400 720h20v20h-20zM460 720h20v20h-20zM480 720h20v20h-20zM520 720h20v20h-20zM560 720h20v20h-20zM580 720h20v20h-20zM600 720h20v20h-20zM680 720h20v20h-20zM700 720h20v20h-20z" shape-rendering="crispEdges"/><path fill-rule="evenodd" d="M80 80h140v140H80Zm20 20h100v100H100ZM600 80h140v140H600Zm20 20h100v100H620Z" shape-rendering="crispEdges"/><path d="M120 120h60v60h-60zM640 120h60v60h-60z" shape-rendering="crispEdges"/><path fill-rule="evenodd" d="M80 600h140v140H80Zm20 20h100v100H100Z" shape-rendering="crispEdges"/><path d="M120 640h60v60h-60z" shape-rendering="crispEdges"/></svg></svg>
