<svg xmlns="http://www.w3.org/2000/svg" width="11.64cm" height="11.64cm" preserveAspectRatio="none" viewBox="0 0 33 33"><path fill="#fff" d="M0 0h33v33H0z"/><path d="M2 2h1v1H2zM3 2h1v1H3zM4 2h1v1H4zM5 2h1v1H5zM6 2h1v1H6zM7 2h1v1H7zM8 2h1v1H8zM12 2h1v1h-1zM14 2h1v1h-1zM18 2h1v1h-1zM19 2h1v1h-1zM20 2h1v1h-1zM21 2h1v1h-1zM22 2h1v1h-1zM24 2h1v1h-1zM25 2h1v1h-1zM26 2h1v1h-1zM27 2h1v1h-1zM28 2h1v1h-1zM29 2h1v1h-1zM30 2h1v1h-1zM2 3h1v1H2zM8 3h1v1H8zM10 3h1v1h-1zM12 3h1v1h-1zM17 3h1v1h-1zM18 3h1v1h-1zM24 3h1v1h-1zM30 3h1v1h-1zM2 4h1v1H2zM4 4h1v1H4zM5 4h1v1H5zM6 4h1v1H6zM8 4h1v1H8zM14 4h1v1h-1zM16 4h1v1h-1zM18 4h1v1h-1zM20 4h1v1h-1zM22 4h1v1h-1zM24 4h1v1h-1zM26 4h1v1h-1zM27 4h1v1h-1zM28 4h1v1h-1zM30 4h1v1h-1zM2 5h1v1H2zM4 5h1v1H4zM5 5h1v1H5zM6 5h1v1H6zM8 5h1v1H8zM10 5h1v1h-1zM11 5h1v1h-1zM12 5h1v1h-1zM14 5h1v1h-1zM15 5h1v1h-1zM16 5h1v1h-1zM19 5h1v1h-1zM21 5h1v1h-1zM24 5h1v1h-1zM26 5h1v1h-1zM27 5h1v1h-1zM28 5h1v1h-1zM30 5h1v1h-1zM2 6h1v1H2zM4 6h1v1H4zM5 6h1v1H5zM6 6h1v1H6zM8 6h1v1H8zM11 6h1v1h-1zM18 6h1v1h-1zM20 6h1v1h-1zM21 6h1v1h-1zM22 6h1v1h-1zM24 6h1v1h-1zM26 6h1v1h-1zM27 6h1v1h-1zM28 6h1v1h-1zM30 6h1v1h-1zM2 7h1v1H2zM8 7h1v1H8zM10 7h1v1h-1zM11 7h1v1h-1zM13 7h1v1h-1zM14 7h1v1h-1zM16 7h1v1h-1zM17 7h1v1h-1zM22 7h1v1h-1zM24 7h1v1h-1zM30 7h1v1h-1zM2 8h1v1H2zM3 8h1v1H3zM4 8h1v1H4zM5 8h1v1H5zM6 8h1v1H6zM7 8h1v1H7zM8 8h1v1H8zM10 8h1v1h-1zM12 8h1v1h-1zM14 8h1v1h-1zM16 8h1v1h-1zM18 8h1v1h-1zM20 8h1v1h-1zM22 8h1v1h-1zM24 8h1v1h-1zM25 8h1v1h-1zM26 8h1v1h-1zM27 8h1v1h-1zM28 8h1v1h-1zM29 8h1v1h-1zM30 8h1v1h-1zM11 9h1v1h-1zM12 9h1v1h-1zM13 9h1v1h-1zM17 9h1v1h-1zM18 9h1v1h-1zM2 10h1v1H2zM3 10h1v1H3zM4 10h1v1H4zM5 10h1v1H5zM6 10h1v1H6zM8 10h1v1H8zM9 10h1v1H9zM10 10h1v1h-1zM11 10h1v1h-1zM13 10h1v1h-1zM19 10h1v1h-1zM23 10h1v1h-1zM25 10h1v1h-1zM27 10h1v1h-1zM29 10h1v1h-1zM6 11h1v1H6zM9 11h1v1H9zM12 11h1v1h-1zM14 11h1v1h-1zM15 11h1v1h-1zM18 11h1v1h-1zM21 11h1v1h-1zM22 11h1v1h-1zM23 11h1v1h-1zM24 11h1v1h-1zM25 11h1v1h-1zM26 11h1v1h-1zM30 11h1v1h-1zM4 12h1v1H4zM6 12h1v1H6zM8 12h1v1H8zM9 12h1v1H9zM10 12h1v1h-1zM12 12h1v1h-1zM15 12h1v1h-1zM16 12h1v1h-1zM17 12h1v1h-1zM22 12h1v1h-1zM23 12h1v1h-1zM25 12h1v1h-1zM26 12h1v1h-1zM3 13h1v1H3zM4 13h1v1H4zM7 13h1v1H7zM9 13h1v1H9zM10 13h1v1h-1zM14 13h1v1h-1zM15 13h1v1h-1zM18 13h1v1h-1zM20 13h1v1h-1zM21 13h1v1h-1zM22 13h1v1h-1zM23 13h1v1h-1zM24 13h1v1h-1zM25 13h1v1h-1zM26 13h1v1h-1zM27 13h1v1h-1zM29 13h1v1h-1zM4 14h1v1H4zM5 14h1v1H5zM8 14h1v1H8zM9 14h1v1H9zM11 14h1v1h-1zM12 14h1v1h-1zM14 14h1v1h-1zM16 14h1v1h-1zM19 14h1v1h-1zM20 14h1v1h-1zM22 14h1v1h-1zM27 14h1v1h-1zM28 14h1v1h-1zM5 15h1v1H5zM7 15h1v1H7zM10 15h1v1h-1zM11 15h1v1h-1zM18 15h1v1h-1zM19 15h1v1h-1zM20 15h1v1h-1zM21 15h1v1h-1zM22 15h1v1h-1zM23 15h1v1h-1zM24 15h1v1h-1zM25 15h1v1h-1zM26 15h1v1h-1zM30 15h1v1h-1zM2 16h1v1H2zM3 16h1v1H3zM4 16h1v1H4zM6 16h1v1H6zM7 16h1v1H7zM8 16h1v1H8zM9 16h1v1H9zM13 16h1v1h-1zM14 16h1v1h-1zM17 16h1v1h-1zM18 16h1v1h-1zM19 16h1v1h-1zM23 16h1v1h-1zM24 16h1v1h-1zM27 16h1v1h-1zM28 16h1v1h-1zM2 17h1v1H2zM3 17h1v1H3zM4 17h1v1H4zM5 17h1v1H5zM6 17h1v1H6zM7 17h1v1H7zM9 17h1v1H9zM11 17h1v1h-1zM12 17h1v1h-1zM13 17h1v1h-1zM16 17h1v1h-1zM18 17h1v1h-1zM20 17h1v1h-1zM21 17h1v1h-1zM22 17h1v1h-1zM25 17h1v1h-1zM26 17h1v1h-1zM29 17h1v1h-1zM3 18h1v1H3zM8 18h1v1H8zM9 18h1v1H9zM10 18h1v1h-1zM13 18h1v1h-1zM17 18h1v1h-1zM18 18h1v1h-1zM19 18h1v1h-1zM21 18h1v1h-1zM25 18h1v1h-1zM27 18h1v1h-1zM28 18h1v1h-1zM2 19h1v1H2zM3 19h1v1H3zM4 19h1v1H4zM5 19h1v1H5zM6 19h1v1H6zM10 19h1v1h-1zM11 19h1v1h-1zM12 19h1v1h-1zM14 19h1v1h-1zM15 19h1v1h-1zM16 19h1v1h-1zM18 19h1v1h-1zM20 19h1v1h-1zM21 19h1v1h-1zM22 19h1v1h-1zM24 19h1v1h-1zM25 19h1v1h-1zM26 19h1v1h-1zM28 19h1v1h-1zM30 19h1v1h-1zM2 20h1v1H2zM5 20h1v1H5zM8 20h1v1H8zM9 20h1v1H9zM11 20h1v1h-1zM15 20h1v1h-1zM16 20h1v1h-1zM17 20h1v1h-1zM18 20h1v1h-1zM19 20h1v1h-1zM20 20h1v1h-1zM22 20h1v1h-1zM25 20h1v1h-1zM28 20h1v1h-1zM2 21h1v1H2zM4 21h1v1H4zM7 21h1v1H7zM9 21h1v1H9zM12 21h1v1h-1zM14 21h1v1h-1zM15 21h1v1h-1zM18 21h1v1h-1zM23 21h1v1h-1zM25 21h1v1h-1zM29 21h1v1h-1zM2 22h1v1H2zM5 22h1v1H5zM6 22h1v1H6zM8 22h1v1H8zM10 22h1v1h-1zM12 22h1v1h-1zM14 22h1v1h-1zM16 22h1v1h-1zM19 22h1v1h-1zM21 22h1v1h-1zM22 22h1v1h-1zM23 22h1v1h-1zM24 22h1v1h-1zM25 22h1v1h-1zM26 22h1v1h-1zM28 22h1v1h-1zM29 22h1v1h-1zM30 22h1v1h-1zM10 23h1v1h-1zM18 23h1v1h-1zM19 23h1v1h-1zM20 23h1v1h-1zM22 23h1v1h-1zM26 23h1v1h-1zM27 23h1v1h-1zM28 23h1v1h-1zM29 23h1v1h-1zM30 23h1v1h-1zM2 24h1v1H2zM3 24h1v1H3zM4 24h1v1H4zM5 24h1v1H5zM6 24h1v1H6zM7 24h1v1H7zM8 24h1v1H8zM10 24h1v1h-1zM11 24h1v1h-1zM13 24h1v1h-1zM14 24h1v1h-1zM17 24h1v1h-1zM19 24h1v1h-1zM21 24h1v1h-1zM22 24h1v1h-1zM24 24h1v1h-1zM26 24h1v1h-1zM27 24h1v1h-1zM28 24h1v1h-1zM2 25h1v1H2zM8 25h1v1H8zM12 25h1v1h-1zM13 25h1v1h-1zM16 25h1v1h-1zM17 25h1v1h-1zM18 25h1v1h-1zM21 25h1v1h-1zM22 25h1v1h-1zM26 25h1v1h-1zM29 25h1v1h-1zM30 25h1v1h-1zM2 26h1v1H2zM4 26h1v1H4zM5 26h1v1H5zM6 26h1v1H6zM8 26h1v1H8zM10 26h1v1h-1zM11 26h1v1h-1zM12 26h1v1h-1zM13 26h1v1h-1zM17 26h1v1h-1zM19 26h1v1h-1zM22 26h1v1h-1zM23 26h1v1h-1zM24 26h1v1h-1zM25 26h1v1h-1zM26 26h1v1h-1zM28 26h1v1h-1zM2 27h1v1H2zM4 27h1v1H4zM5 27h1v1H5zM6 27h1v1H6zM8 27h1v1H8zM10 27h1v1h-1zM12 27h1v1h-1zM14 27h1v1h-1zM15 27h1v1h-1zM16 27h1v1h-1zM18 27h1v1h-1zM19 27h1v1h-1zM20 27h1v1h-1zM21 27h1v1h-1zM22 27h1v1h-1zM27 27h1v1h-1zM28 27h1v1h-1zM29 27h1v1h-1zM30 27h1v1h-1zM2 28h1v1H2zM4 28h1v1H4zM5 28h1v1H5zM6 28h1v1H6zM8 28h1v1H8zM10 28h1v1h-1zM12 28h1v1h-1zM15 28h1v1h-1zM16 28h1v1h-1zM17 28h1v1h-1zM18 28h1v1h-1zM21 28h1v1h-1zM22 28h1v1h-1zM23 28h1v1h-1zM24 28h1v1h-1zM25 28h1v1h-1zM26 28h1v1h-1zM27 28h1v1h-1zM28 28h1v1h-1zM29 28h1v1h-1zM2 29h1v1H2zM8 29h1v1H8zM10 29h1v1h-1zM12 29h1v1h-1zM14 29h1v1h-1zM15 29h1v1h-1zM18 29h1v1h-1zM22 29h1v1h-1zM23 29h1v1h-1zM25 29h1v1h-1zM27 29h1v1h-1zM29 29h1v1h-1zM2 30h1v1H2zM3 30h1v1H3zM4 30h1v1H4zM5 30h1v1H5zM6 30h1v1H6zM7 30h1v1H7zM8 30h1v1H8zM10 30h1v1h-1zM11 30h1v1h-1zM12 30h1v1h-1zM14 30h1v1h-1zM16 30h1v1h-1zM19 30h1v1h-1zM20 30h1v1h-1zM21 30h1v1h-1zM24 30h1v1h-1zM26 30h1v1h-1zM28 30h1v1h-1z"/></svg>