<svg xmlns="http://www.w3.org/2000/svg" width="4.34cm" height="4.34cm" preserveAspectRatio="none" viewBox="0 0 41 41"><path fill="#fff" d="M0 0h41v41H0z"/><path d="M4 4h1v1H4zM5 4h1v1H5zM6 4h1v1H6zM7 4h1v1H7zM8 4h1v1H8zM9 4h1v1H9zM10 4h1v1h-1zM14 4h1v1h-1zM19 4h1v1h-1zM22 4h1v1h-1zM23 4h1v1h-1zM25 4h1v1h-1zM26 4h1v1h-1zM27 4h1v1h-1zM30 4h1v1h-1zM31 4h1v1h-1zM32 4h1v1h-1zM33 4h1v1h-1zM34 4h1v1h-1zM35 4h1v1h-1zM36 4h1v1h-1zM4 5h1v1H4zM10 5h1v1h-1zM12 5h1v1h-1zM15 5h1v1h-1zM16 5h1v1h-1zM19 5h1v1h-1zM20 5h1v1h-1zM21 5h1v1h-1zM22 5h1v1h-1zM23 5h1v1h-1zM24 5h1v1h-1zM25 5h1v1h-1zM27 5h1v1h-1zM30 5h1v1h-1zM36 5h1v1h-1zM4 6h1v1H4zM6 6h1v1H6zM7 6h1v1H7zM8 6h1v1H8zM10 6h1v1h-1zM13 6h1v1h-1zM18 6h1v1h-1zM19 6h1v1h-1zM22 6h1v1h-1zM23 6h1v1h-1zM27 6h1v1h-1zM30 6h1v1h-1zM32 6h1v1h-1zM33 6h1v1h-1zM34 6h1v1h-1zM36 6h1v1h-1zM4 7h1v1H4zM6 7h1v1H6zM7 7h1v1H7zM8 7h1v1H8zM10 7h1v1h-1zM14 7h1v1h-1zM17 7h1v1h-1zM18 7h1v1h-1zM24 7h1v1h-1zM26 7h1v1h-1zM30 7h1v1h-1zM32 7h1v1h-1zM33 7h1v1h-1zM34 7h1v1h-1zM36 7h1v1h-1zM4 8h1v1H4zM6 8h1v1H6zM7 8h1v1H7zM8 8h1v1H8zM10 8h1v1h-1zM12 8h1v1h-1zM13 8h1v1h-1zM15 8h1v1h-1zM16 8h1v1h-1zM18 8h1v1h-1zM20 8h1v1h-1zM21 8h1v1h-1zM22 8h1v1h-1zM23 8h1v1h-1zM26 8h1v1h-1zM27 8h1v1h-1zM30 8h1v1h-1zM32 8h1v1h-1zM33 8h1v1h-1zM34 8h1v1h-1zM36 8h1v1h-1zM4 9h1v1H4zM10 9h1v1h-1zM14 9h1v1h-1zM15 9h1v1h-1zM18 9h1v1h-1zM19 9h1v1h-1zM20 9h1v1h-1zM21 9h1v1h-1zM22 9h1v1h-1zM23 9h1v1h-1zM24 9h1v1h-1zM25 9h1v1h-1zM27 9h1v1h-1zM28 9h1v1h-1zM30 9h1v1h-1zM36 9h1v1h-1zM4 10h1v1H4zM5 10h1v1H5zM6 10h1v1H6zM7 10h1v1H7zM8 10h1v1H8zM9 10h1v1H9zM10 10h1v1h-1zM12 10h1v1h-1zM14 10h1v1h-1zM16 10h1v1h-1zM18 10h1v1h-1zM20 10h1v1h-1zM22 10h1v1h-1zM24 10h1v1h-1zM26 10h1v1h-1zM28 10h1v1h-1zM30 10h1v1h-1zM31 10h1v1h-1zM32 10h1v1h-1zM33 10h1v1h-1zM34 10h1v1h-1zM35 10h1v1h-1zM36 10h1v1h-1zM13 11h1v1h-1zM15 11h1v1h-1zM17 11h1v1h-1zM21 11h1v1h-1zM22 11h1v1h-1zM23 11h1v1h-1zM24 11h1v1h-1zM25 11h1v1h-1zM26 11h1v1h-1zM28 11h1v1h-1zM4 12h1v1H4zM6 12h1v1H6zM8 12h1v1H8zM10 12h1v1h-1zM15 12h1v1h-1zM16 12h1v1h-1zM17 12h1v1h-1zM20 12h1v1h-1zM21 12h1v1h-1zM22 12h1v1h-1zM24 12h1v1h-1zM25 12h1v1h-1zM27 12h1v1h-1zM28 12h1v1h-1zM32 12h1v1h-1zM35 12h1v1h-1zM8 13h1v1H8zM11 13h1v1h-1zM12 13h1v1h-1zM14 13h1v1h-1zM15 13h1v1h-1zM16 13h1v1h-1zM17 13h1v1h-1zM20 13h1v1h-1zM24 13h1v1h-1zM26 13h1v1h-1zM29 13h1v1h-1zM30 13h1v1h-1zM31 13h1v1h-1zM35 13h1v1h-1zM36 13h1v1h-1zM4 14h1v1H4zM5 14h1v1H5zM6 14h1v1H6zM10 14h1v1h-1zM11 14h1v1h-1zM16 14h1v1h-1zM21 14h1v1h-1zM25 14h1v1h-1zM29 14h1v1h-1zM31 14h1v1h-1zM34 14h1v1h-1zM35 14h1v1h-1zM36 14h1v1h-1zM4 15h1v1H4zM5 15h1v1H5zM7 15h1v1H7zM13 15h1v1h-1zM15 15h1v1h-1zM16 15h1v1h-1zM17 15h1v1h-1zM21 15h1v1h-1zM22 15h1v1h-1zM25 15h1v1h-1zM32 15h1v1h-1zM36 15h1v1h-1zM4 16h1v1H4zM5 16h1v1H5zM9 16h1v1H9zM10 16h1v1h-1zM11 16h1v1h-1zM13 16h1v1h-1zM15 16h1v1h-1zM16 16h1v1h-1zM18 16h1v1h-1zM20 16h1v1h-1zM21 16h1v1h-1zM24 16h1v1h-1zM25 16h1v1h-1zM26 16h1v1h-1zM28 16h1v1h-1zM29 16h1v1h-1zM30 16h1v1h-1zM33 16h1v1h-1zM36 16h1v1h-1zM5 17h1v1H5zM7 17h1v1H7zM8 17h1v1H8zM12 17h1v1h-1zM13 17h1v1h-1zM14 17h1v1h-1zM16 17h1v1h-1zM17 17h1v1h-1zM19 17h1v1h-1zM20 17h1v1h-1zM24 17h1v1h-1zM25 17h1v1h-1zM28 17h1v1h-1zM29 17h1v1h-1zM30 17h1v1h-1zM31 17h1v1h-1zM33 17h1v1h-1zM34 17h1v1h-1zM36 17h1v1h-1zM4 18h1v1H4zM8 18h1v1H8zM9 18h1v1H9zM10 18h1v1h-1zM12 18h1v1h-1zM13 18h1v1h-1zM18 18h1v1h-1zM20 18h1v1h-1zM21 18h1v1h-1zM24 18h1v1h-1zM26 18h1v1h-1zM29 18h1v1h-1zM31 18h1v1h-1zM32 18h1v1h-1zM33 18h1v1h-1zM34 18h1v1h-1zM35 18h1v1h-1zM36 18h1v1h-1zM4 19h1v1H4zM5 19h1v1H5zM6 19h1v1H6zM8 19h1v1H8zM9 19h1v1H9zM12 19h1v1h-1zM17 19h1v1h-1zM19 19h1v1h-1zM21 19h1v1h-1zM22 19h1v1h-1zM23 19h1v1h-1zM24 19h1v1h-1zM25 19h1v1h-1zM30 19h1v1h-1zM35 19h1v1h-1zM5 20h1v1H5zM7 20h1v1H7zM10 20h1v1h-1zM11 20h1v1h-1zM13 20h1v1h-1zM14 20h1v1h-1zM17 20h1v1h-1zM19 20h1v1h-1zM20 20h1v1h-1zM21 20h1v1h-1zM23 20h1v1h-1zM24 20h1v1h-1zM25 20h1v1h-1zM29 20h1v1h-1zM30 20h1v1h-1zM4 21h1v1H4zM8 21h1v1H8zM12 21h1v1h-1zM13 21h1v1h-1zM16 21h1v1h-1zM17 21h1v1h-1zM18 21h1v1h-1zM20 21h1v1h-1zM24 21h1v1h-1zM26 21h1v1h-1zM28 21h1v1h-1zM29 21h1v1h-1zM30 21h1v1h-1zM31 21h1v1h-1zM36 21h1v1h-1zM6 22h1v1H6zM7 22h1v1H7zM8 22h1v1H8zM10 22h1v1h-1zM11 22h1v1h-1zM13 22h1v1h-1zM15 22h1v1h-1zM16 22h1v1h-1zM22 22h1v1h-1zM24 22h1v1h-1zM28 22h1v1h-1zM30 22h1v1h-1zM34 22h1v1h-1zM35 22h1v1h-1zM36 22h1v1h-1zM5 23h1v1H5zM8 23h1v1H8zM13 23h1v1h-1zM15 23h1v1h-1zM17 23h1v1h-1zM20 23h1v1h-1zM21 23h1v1h-1zM22 23h1v1h-1zM24 23h1v1h-1zM25 23h1v1h-1zM26 23h1v1h-1zM27 23h1v1h-1zM29 23h1v1h-1zM30 23h1v1h-1zM31 23h1v1h-1zM32 23h1v1h-1zM5 24h1v1H5zM8 24h1v1H8zM9 24h1v1H9zM10 24h1v1h-1zM11 24h1v1h-1zM14 24h1v1h-1zM15 24h1v1h-1zM17 24h1v1h-1zM18 24h1v1h-1zM19 24h1v1h-1zM21 24h1v1h-1zM23 24h1v1h-1zM24 24h1v1h-1zM25 24h1v1h-1zM28 24h1v1h-1zM29 24h1v1h-1zM30 24h1v1h-1zM33 24h1v1h-1zM35 24h1v1h-1zM5 25h1v1H5zM6 25h1v1H6zM7 25h1v1H7zM8 25h1v1H8zM9 25h1v1H9zM13 25h1v1h-1zM15 25h1v1h-1zM16 25h1v1h-1zM17 25h1v1h-1zM19 25h1v1h-1zM21 25h1v1h-1zM24 25h1v1h-1zM25 25h1v1h-1zM26 25h1v1h-1zM28 25h1v1h-1zM29 25h1v1h-1zM30 25h1v1h-1zM34 25h1v1h-1zM35 25h1v1h-1zM36 25h1v1h-1zM4 26h1v1H4zM6 26h1v1H6zM10 26h1v1h-1zM11 26h1v1h-1zM14 26h1v1h-1zM15 26h1v1h-1zM17 26h1v1h-1zM19 26h1v1h-1zM20 26h1v1h-1zM22 26h1v1h-1zM24 26h1v1h-1zM26 26h1v1h-1zM28 26h1v1h-1zM30 26h1v1h-1zM32 26h1v1h-1zM33 26h1v1h-1zM34 26h1v1h-1zM35 26h1v1h-1zM36 26h1v1h-1zM5 27h1v1H5zM7 27h1v1H7zM8 27h1v1H8zM12 27h1v1h-1zM13 27h1v1h-1zM15 27h1v1h-1zM18 27h1v1h-1zM21 27h1v1h-1zM22 27h1v1h-1zM23 27h1v1h-1zM24 27h1v1h-1zM25 27h1v1h-1zM27 27h1v1h-1zM28 27h1v1h-1zM32 27h1v1h-1zM35 27h1v1h-1zM4 28h1v1H4zM8 28h1v1H8zM9 28h1v1H9zM10 28h1v1h-1zM13 28h1v1h-1zM14 28h1v1h-1zM19 28h1v1h-1zM20 28h1v1h-1zM21 28h1v1h-1zM23 28h1v1h-1zM24 28h1v1h-1zM25 28h1v1h-1zM28 28h1v1h-1zM29 28h1v1h-1zM30 28h1v1h-1zM31 28h1v1h-1zM32 28h1v1h-1zM33 28h1v1h-1zM12 29h1v1h-1zM13 29h1v1h-1zM15 29h1v1h-1zM16 29h1v1h-1zM17 29h1v1h-1zM18 29h1v1h-1zM21 29h1v1h-1zM22 29h1v1h-1zM25 29h1v1h-1zM28 29h1v1h-1zM32 29h1v1h-1zM33 29h1v1h-1zM35 29h1v1h-1zM36 29h1v1h-1zM4 30h1v1H4zM5 30h1v1H5zM6 30h1v1H6zM7 30h1v1H7zM8 30h1v1H8zM9 30h1v1H9zM10 30h1v1h-1zM13 30h1v1h-1zM14 30h1v1h-1zM16 30h1v1h-1zM20 30h1v1h-1zM25 30h1v1h-1zM27 30h1v1h-1zM28 30h1v1h-1zM30 30h1v1h-1zM32 30h1v1h-1zM34 30h1v1h-1zM36 30h1v1h-1zM4 31h1v1H4zM10 31h1v1h-1zM14 31h1v1h-1zM16 31h1v1h-1zM17 31h1v1h-1zM18 31h1v1h-1zM19 31h1v1h-1zM21 31h1v1h-1zM23 31h1v1h-1zM24 31h1v1h-1zM25 31h1v1h-1zM26 31h1v1h-1zM28 31h1v1h-1zM32 31h1v1h-1zM4 32h1v1H4zM6 32h1v1H6zM7 32h1v1H7zM8 32h1v1H8zM10 32h1v1h-1zM12 32h1v1h-1zM14 32h1v1h-1zM16 32h1v1h-1zM17 32h1v1h-1zM20 32h1v1h-1zM22 32h1v1h-1zM24 32h1v1h-1zM25 32h1v1h-1zM28 32h1v1h-1zM29 32h1v1h-1zM30 32h1v1h-1zM31 32h1v1h-1zM32 32h1v1h-1zM33 32h1v1h-1zM35 32h1v1h-1zM36 32h1v1h-1zM4 33h1v1H4zM6 33h1v1H6zM7 33h1v1H7zM8 33h1v1H8zM10 33h1v1h-1zM16 33h1v1h-1zM17 33h1v1h-1zM18 33h1v1h-1zM21 33h1v1h-1zM22 33h1v1h-1zM24 33h1v1h-1zM27 33h1v1h-1zM32 33h1v1h-1zM33 33h1v1h-1zM36 33h1v1h-1zM4 34h1v1H4zM6 34h1v1H6zM7 34h1v1H7zM8 34h1v1H8zM10 34h1v1h-1zM12 34h1v1h-1zM13 34h1v1h-1zM16 34h1v1h-1zM18 34h1v1h-1zM20 34h1v1h-1zM22 34h1v1h-1zM28 34h1v1h-1zM29 34h1v1h-1zM32 34h1v1h-1zM34 34h1v1h-1zM36 34h1v1h-1zM4 35h1v1H4zM10 35h1v1h-1zM18 35h1v1h-1zM19 35h1v1h-1zM21 35h1v1h-1zM23 35h1v1h-1zM25 35h1v1h-1zM28 35h1v1h-1zM29 35h1v1h-1zM30 35h1v1h-1zM32 35h1v1h-1zM35 35h1v1h-1zM4 36h1v1H4zM5 36h1v1H5zM6 36h1v1H6zM7 36h1v1H7zM8 36h1v1H8zM9 36h1v1H9zM10 36h1v1h-1zM12 36h1v1h-1zM14 36h1v1h-1zM16 36h1v1h-1zM17 36h1v1h-1zM21 36h1v1h-1zM24 36h1v1h-1zM25 36h1v1h-1zM27 36h1v1h-1zM28 36h1v1h-1zM29 36h1v1h-1zM30 36h1v1h-1zM32 36h1v1h-1zM35 36h1v1h-1zM36 36h1v1h-1z"/></svg>